<svg width="24" height="24" viewBox="0 0 24 24" fill="none" xmlns="http://www.w3.org/2000/svg">
<path d="M7 14V21C7 21.2833 6.90417 21.5208 6.7125 21.7125C6.52083 21.9042 6.28333 22 6 22C5.71667 22 5.47917 21.9042 5.2875 21.7125C5.09583 21.5208 5 21.2833 5 21V3C5 2.71667 5.09583 2.47917 5.2875 2.2875C5.47917 2.09583 5.71667 2 6 2C6.28333 2 6.52083 2.09583 6.7125 2.2875C6.90417 2.47917 7 2.71667 7 3V4H19.525C19.875 4 20.15 4.14583 20.35 4.4375C20.55 4.72917 20.5833 5.04167 20.45 5.375L19 9L20.45 12.625C20.5833 12.9583 20.55 13.2708 20.35 13.5625C20.15 13.8542 19.875 14 19.525 14H7Z" fill="#E8EAED"/>
</svg>
